<svg
  xmlns="http://www.w3.org/2000/svg"
  width="1024"
  height="1024"
  viewBox="0 0 256 256"
  version="1.1"
  class="injected-svg"
  data-src="https://storage.googleapis.com/illustroke-c1d67.appspot.com/P8FwiLkQFIN7gzK6dPnGzSk7ldD3/t7wr5yg97dqfluf0p8w4-1.svg"
  xmlns:xlink="http://www.w3.org/1999/xlink"
><rect width="1024" height="1024" fill="none" />
	<path
    fill="#2DD4BF"
    d="M 131.500 27.968 C 129.850 28.405, 121.300 28.822, 112.500 28.894 C 102.527 28.975, 94.560 29.540, 91.350 30.395 C 81.143 33.113, 72.994 41.029, 69.543 51.578 C 68.099 55.992, 67.954 64.181, 68.211 126.517 C 68.535 205.043, 68.024 199.731, 76.101 208.494 C 83.021 216.001, 83.014 216, 134.982 216 L 180.607 216 185.890 213.367 C 191.983 210.331, 197.307 203.779, 198.941 197.307 C 199.636 194.557, 200 169.241, 200 123.735 C 200 45.508, 200.309 48.897, 192.361 40.056 C 189.791 37.198, 185.507 33.927, 182.239 32.329 C 176.888 29.711, 175.544 29.518, 158.037 28.860 C 147.842 28.476, 138.375 27.940, 137 27.668 C 135.625 27.395, 133.150 27.530, 131.500 27.968"
    stroke="none"
    fill-rule="evenodd"
    fill-opacity="1"
  />
	<path
    fill="#99F6E4"
    d="M 135 33.408 C 135 38.641, 134.801 39.125, 132.252 40.094 C 128.174 41.645, 126.112 43.889, 125.431 47.516 C 124.592 51.988, 127.252 56.789, 131.566 58.592 C 134.886 59.979, 135 60.208, 135 65.513 C 135 71.545, 135.363 71.802, 141.101 69.834 C 145.538 68.312, 150.302 64.673, 151.991 61.517 L 153.338 59 176.748 59 L 200.159 59 199.471 55.750 C 198.069 49.132, 194.657 42.953, 189.996 38.593 C 182.255 31.353, 180.091 30.759, 158.500 29.955 C 148.050 29.567, 138.488 28.915, 137.250 28.508 C 135.095 27.798, 135 28.005, 135 33.408 M 89.882 31.381 C 84.598 33.269, 79.459 36.668, 76.387 40.305 C 72.860 44.482, 69.022 52.778, 69.010 56.250 L 69 59 91.975 59 L 114.950 59 113.975 56.435 C 112.466 52.464, 112.821 44.178, 114.669 40.285 C 115.587 38.351, 117.906 35.245, 119.822 33.384 L 123.307 30 108.403 30.044 C 98.858 30.072, 92.199 30.553, 89.882 31.381 M 86.103 87.391 C 81.188 92.622, 85.974 101.043, 92.986 99.503 C 95.054 99.049, 96.801 97.758, 97.855 95.904 L 99.500 93.013 115.809 93.006 C 126.434 93.002, 131.902 92.651, 131.500 91.999 C 131.101 91.354, 125.215 91.232, 114.940 91.656 C 102.831 92.155, 99 92.024, 99 91.111 C 99 90.450, 97.895 88.805, 96.545 87.455 C 93.363 84.272, 89.057 84.246, 86.103 87.391 M 86 113 C 82.268 116.732, 83.774 122.835, 88.956 124.982 C 91.519 126.043, 92.371 125.987, 94.459 124.619 C 95.818 123.728, 97.411 122.100, 98 121 C 99.024 119.087, 100.141 118.996, 123.785 118.912 C 137.378 118.864, 150.750 118.474, 153.500 118.046 C 156.582 117.566, 147.162 117.216, 128.938 117.134 L 99.376 117 97.158 114 C 94.438 110.321, 89.153 109.847, 86 113 M 88.315 137.007 C 83.688 138.871, 82.595 145.331, 86.314 148.826 C 89.768 152.070, 94.410 151.717, 97.158 148 L 99.376 145 132.247 145 C 153.906 145, 164.907 144.659, 164.500 144 C 164.109 143.367, 151.982 143, 131.420 143 L 98.957 143 97.868 140.610 C 97.269 139.296, 95.683 137.721, 94.343 137.110 C 91.531 135.829, 91.250 135.825, 88.315 137.007 M 88.315 163.007 C 83.688 164.871, 82.595 171.331, 86.314 174.826 C 89.768 178.070, 94.410 177.717, 97.158 174 L 99.376 171 132.129 171 C 152.886 171, 165.108 170.634, 165.500 170 C 165.907 169.341, 154.731 169, 132.720 169 L 99.321 169 98.173 166.480 C 97.541 165.094, 95.865 163.519, 94.447 162.980 C 91.448 161.840, 91.210 161.841, 88.315 163.007"
    stroke="none"
    fill-rule="evenodd"
    fill-opacity="1"
  />
</svg>
